<svg xmlns="http://www.w3.org/2000/svg" width="256" height="256" viewBox="0 0 256 256" role="img" aria-label="ConvEngine logo">
  <defs>
    <linearGradient id="ceGrad" x1="24" y1="32" x2="232" y2="224" gradientUnits="userSpaceOnUse">
      <stop offset="0" stop-color="#22D3EE"/>
      <stop offset="0.55" stop-color="#3B82F6"/>
      <stop offset="1" stop-color="#A855F7"/>
    </linearGradient>

    <filter id="soft" x="-20%" y="-20%" width="140%" height="140%">
      <feDropShadow dx="0" dy="6" stdDeviation="8" flood-color="#000" flood-opacity="0.18"/>
    </filter>
  </defs>

  <!-- Chat bubble -->
  <path
    d="M128 28c-52.467 0-95 35.817-95 80 0 24.11 12.79 45.72 33.54 60.35L55 220l60.14-30.98c4.22.46 8.53.7 12.86.7 52.467 0 95-35.817 95-80S180.467 28 128 28Z"
    fill="url(#ceGrad)"
    filter="url(#soft)"
  />

  <!-- Subtle inner highlight -->
  <path
    d="M128 40c-45.84 0-83 30.25-83 68 0 20.98 11.25 39.9 29.66 52.62l-8.72 36.1 43.75-22.84c5.94 1.1 12.14 1.68 18.31 1.68 45.84 0 83-30.25 83-68s-37.16-68-83-68Z"
    fill="#ffffff"
    opacity="0.12"
  />

  <!-- Neural network nodes -->
  <g fill="none" stroke="#ffffff" stroke-opacity="0.9" stroke-width="8" stroke-linecap="round" stroke-linejoin="round">
    <path d="M92 108L128 88l36 20-10 40-52 0-10-40Z" opacity="0.9"/>
    <path d="M128 88v60" opacity="0.75"/>
    <path d="M92 108l36 40 36-40" opacity="0.75"/>
  </g>

  <!-- Node dots -->
  <g fill="#ffffff">
    <circle cx="92" cy="108" r="10"/>
    <circle cx="128" cy="88" r="10"/>
    <circle cx="164" cy="108" r="10"/>
    <circle cx="118" cy="148" r="10"/>
    <circle cx="138" cy="148" r="10"/>
  </g>

  <!-- Chat "typing" dots (left) -->
  <g fill="#ffffff" opacity="0.9">
    <circle cx="76" cy="138" r="7"/>
    <circle cx="98" cy="138" r="7"/>
    <circle cx="120" cy="138" r="7"/>
  </g>
</svg>
